# xmcd
#
# Track frame offsets: 
#        150
#        11918
#        26145
#        35975
#        52013
#        65083
#        75575
#        88288
#        103210
#        122053
#
# Disc length: 1832 seconds
#
# Revision: 2
# Processed by: cddbd v1.5.2PL0 Copyright (c) Steve Scherf et al.
# Submitted via: ExactAudioCopy v1.0b3
#
DISCID=9307260a
DTITLE=Memphis Slim - Boogie After Midnight
DYEAR=1994
DGENRE=Blues
TTITLE0=Trouble In Mind
TTITLE1=Roll And Tumble
TTITLE2=Cow Cow Blues
TTITLE3=Unknown Title
TTITLE4=Crowing Rooster
TTITLE5=The Bells
TTITLE6=The Lord Have Mercy On You
TTITLE7=My Baby Don't Love Me No More
TTITLE8=Pine Top Boogie P.D.
TTITLE9=Boogie After Midnight
EXTD=10 tracks on CD... 9 Tracks listed on CD and on cover.  Most are 
EXTD=instrumental, so I'm not sure what is what.  First 4 tracks im my
EXTD=submission are questionable. 5-10 are accurate.
EXTT0=
EXTT1=
EXTT2=
EXTT3=
EXTT4=
EXTT5=
EXTT6=
EXTT7=
EXTT8=
EXTT9=
PLAYORDER=
